<svg width="44" height="55" fill="none" xmlns="http://www.w3.org/2000/svg"><path d="M3.218 17.814c-.896 0-1.656.33-2.28.991C.312 19.466 0 20.26 0 21.185v14.213c0 .949.312 1.752.937 2.413.625.66 1.385.991 2.281.991.896 0 1.651-.33 2.266-.991.614-.661.922-1.464.922-2.413V21.185c0-.926-.312-1.719-.937-2.38-.625-.66-1.376-.99-2.25-.99zM29.094 5.058l2.219-4.33c.146-.287.094-.507-.156-.661-.271-.134-.48-.066-.625.197l-2.25 4.365a14.648 14.648 0 00-6.28-1.39c-2.21 0-4.303.464-6.282 1.39L13.47.264c-.146-.263-.354-.33-.625-.197-.25.155-.302.374-.155.66l2.218 4.33a13.994 13.994 0 00-5.375 5.075c-1.333 2.172-2 4.546-2 7.125h28.905c0-2.579-.667-4.952-2-7.125a14.06 14.06 0 00-5.344-5.074zm-12.827 6.297a1.14 1.14 0 01-.86.382 1.09 1.09 0 01-.844-.382 1.306 1.306 0 01-.343-.908c0-.353.114-.655.343-.91.23-.252.51-.379.844-.379.333 0 .62.127.86.38.239.254.36.556.36.909a1.285 1.285 0 01-.36.909zm13.17 0a1.09 1.09 0 01-.843.382c-.334 0-.62-.127-.86-.382a1.274 1.274 0 01-.36-.908c0-.353.12-.655.36-.91.24-.252.526-.379.86-.379.333 0 .614.127.844.38.229.254.343.556.343.909s-.114.655-.343.909zm-21.784 29.1c0 1.015.333 1.874 1 2.579.666.705 1.478 1.057 2.436 1.057h2.313l.032 7.504c0 .948.312 1.752.937 2.413.625.661 1.375.992 2.25.992.895 0 1.656-.33 2.28-.992.626-.66.938-1.465.938-2.413v-7.503h4.312v7.503c0 .948.313 1.752.938 2.413.625.661 1.385.992 2.28.992.896 0 1.657-.33 2.281-.992.625-.66.938-1.465.938-2.413v-7.503h2.343c.938 0 1.74-.353 2.407-1.058.666-.704 1-1.563 1-2.578V18.441H7.652v22.014zm33.129-22.641c-.875 0-1.625.326-2.25.975-.625.65-.938 1.45-.938 2.396v14.213c0 .949.313 1.752.938 2.413.625.661 1.375.991 2.25.991.895 0 1.656-.33 2.28-.991.626-.661.938-1.464.938-2.413V21.185c0-.946-.312-1.745-.937-2.396-.625-.65-1.386-.975-2.281-.975z" fill="#6149C4"/></svg>