<svg width="44" height="52" fill="none" xmlns="http://www.w3.org/2000/svg"><path d="M28.27 9.751c1.328-1.295 2.307-2.714 2.939-4.257.61-1.544.916-2.942.916-4.198a4.02 4.02 0 00-.016-.308 3.479 3.479 0 01-.016-.309 2.978 2.978 0 01-.079-.34A2.944 2.944 0 0031.935 0c-3.706.844-6.338 2.366-7.896 4.568-1.58 2.221-2.401 4.865-2.464 7.93 1.41-.123 2.505-.297 3.285-.523 1.137-.372 2.274-1.112 3.41-2.224z" fill="#6149C4"/><path d="M39.01 33.595c-1.453-2.035-2.18-4.328-2.18-6.88 0-2.323.684-4.452 2.053-6.386.737-1.048 1.938-2.262 3.601-3.64-1.095-1.316-2.19-2.344-3.285-3.085-1.98-1.336-4.222-2.006-6.728-2.006-1.495 0-3.316.351-5.464 1.05-2.064.7-3.57 1.048-4.517 1.048-.716 0-2.17-.308-4.36-.925-2.21-.617-4.074-.926-5.59-.926-3.622 0-6.612 1.481-8.97 4.443C1.19 19.291 0 23.137 0 27.826c0 4.977 1.548 10.149 4.644 15.518 3.137 5.326 6.306 7.99 9.507 7.99 1.074 0 2.463-.35 4.17-1.049 1.705-.679 3.2-1.018 4.484-1.018 1.37 0 2.958.329 4.77.987 1.916.658 3.39.986 4.422.986 2.695 0 5.401-2.015 8.118-6.046 1.769-2.57 3.064-5.142 3.885-7.712-1.874-.555-3.537-1.85-4.99-3.887z" fill="#6149C4"/></svg>