<svg width="44" height="55" viewBox="0 0 44 55" fill="none" xmlns="http://www.w3.org/2000/svg">
<path d="M3.2183 17.8141C2.32238 17.8141 1.56223 18.1446 0.937377 18.8055C0.312522 19.4664 0 20.2595 0 21.1852V35.3977C0 36.3466 0.312428 37.1499 0.937377 37.8109C1.56223 38.4719 2.32238 38.8024 3.2183 38.8024C4.11355 38.8024 4.8691 38.472 5.48427 37.8109C6.09822 37.15 6.40604 36.3466 6.40604 35.3977V21.1852C6.40604 20.2594 6.09361 19.4664 5.46866 18.8055C4.84371 18.1446 4.09343 17.8141 3.2183 17.8141Z" fill="#6149C4"/>
<path d="M29.0941 5.05753L31.3128 0.727572C31.4585 0.440911 31.4067 0.221091 31.157 0.0665207C30.8859 -0.0667638 30.6776 0.00077364 30.5321 0.264359L28.2824 4.62893C26.3028 3.703 24.209 3.23919 22.0012 3.23919C19.7928 3.23919 17.6989 3.7031 15.72 4.62893L13.4702 0.264359C13.324 0.00077364 13.1158 -0.066167 12.8454 0.0665207C12.5951 0.221787 12.5433 0.440911 12.6895 0.727572L14.9083 5.05753C12.6584 6.27131 10.8666 7.96174 9.53339 10.1325C8.20018 12.3044 7.53329 14.6779 7.53329 17.257H36.4376C36.4376 14.6785 35.7706 12.3049 34.4375 10.1325C33.1042 7.96174 31.3227 6.27131 29.0941 5.05753ZM16.2667 11.3555C16.0267 11.61 15.7401 11.7366 15.407 11.7366C15.0733 11.7366 14.7925 11.61 14.5635 11.3555C14.3344 11.1023 14.2199 10.8003 14.2199 10.4467C14.2199 10.0943 14.3344 9.79172 14.5635 9.53788C14.7925 9.28464 15.0739 9.15802 15.407 9.15802C15.7401 9.15802 16.0267 9.28464 16.2667 9.53788C16.506 9.79231 16.6263 10.0943 16.6263 10.4467C16.6256 10.7997 16.5055 11.1023 16.2667 11.3555ZM29.4376 11.3555C29.2081 11.61 28.9267 11.7366 28.5941 11.7366C28.2603 11.7366 27.9738 11.61 27.7343 11.3555C27.4945 11.1023 27.3748 10.8003 27.3748 10.4467C27.3748 10.0943 27.4945 9.79172 27.7343 9.53788C27.9738 9.28464 28.2603 9.15802 28.5941 9.15802C28.9273 9.15802 29.208 9.28464 29.4376 9.53788C29.6668 9.79231 29.7812 10.0943 29.7812 10.4467C29.7812 10.7997 29.6667 11.1023 29.4376 11.3555Z" fill="#6149C4"/>
<path d="M7.65269 40.4554C7.65269 41.47 7.98581 42.3289 8.65213 43.0337C9.31902 43.7385 10.131 44.0909 11.0895 44.0909H13.402L13.4337 51.5951C13.4337 52.5427 13.7462 53.3474 14.371 54.0084C14.9959 54.6695 15.7462 55 16.6208 55C17.5162 55 18.2768 54.6695 18.9018 54.0084C19.5267 53.3474 19.8391 52.5428 19.8391 51.5951V44.0916H24.1513V51.5951C24.1513 52.5427 24.4636 53.3474 25.0886 54.0084C25.7135 54.6695 26.4735 55 27.3695 55C28.2649 55 29.0255 54.6695 29.6504 54.0084C30.2754 53.3474 30.5877 52.5428 30.5877 51.5951V44.0916H32.9315C33.8688 44.0916 34.6703 43.7391 35.3378 43.0343C36.0041 42.3295 36.3374 41.4706 36.3374 40.4561V18.4409H7.65269V40.4554Z" fill="#6149C4"/>
<path d="M40.7818 17.8141C39.9065 17.8141 39.1568 18.1397 38.5318 18.7891C37.907 19.4397 37.5945 20.2388 37.5945 21.1852V35.3977C37.5945 36.3466 37.9069 37.1499 38.5318 37.8109C39.1568 38.472 39.9071 38.8024 40.7818 38.8024C41.6771 38.8024 42.4377 38.472 43.0627 37.8109C43.6877 37.1499 44 36.3466 44 35.3977V21.1852C44 20.2387 43.6877 19.4397 43.0627 18.7891C42.4377 18.1397 41.6771 17.8141 40.7818 17.8141Z" fill="#6149C4"/>
</svg>
