<svg width="20" height="20" viewBox="0 0 20 20" fill="none" xmlns="http://www.w3.org/2000/svg">
<path d="M18.947 6.305C18.936 5.548 18.796 4.797 18.528 4.089C18.059 2.88 17.104 1.924 15.895 1.456C15.196 1.193 14.457 1.052 13.709 1.036C12.747 0.993003 12.442 0.981003 10 0.981003C7.55801 0.981003 7.24501 0.981003 6.29001 1.036C5.54301 1.052 4.80401 1.193 4.10501 1.456C2.89601 1.924 1.94001 2.88 1.47201 4.089C1.20901 4.788 1.06701 5.527 1.05301 6.274C1.01001 7.237 0.997009 7.542 0.997009 9.984C0.997009 12.426 0.997009 12.738 1.05301 13.694C1.06801 14.442 1.20901 15.18 1.47201 15.881C1.94101 17.089 2.89601 18.045 4.10601 18.513C4.80201 18.785 5.54101 18.939 6.29101 18.963C7.25401 19.006 7.55901 19.019 10.001 19.019C12.443 19.019 12.756 19.019 13.711 18.963C14.458 18.948 15.197 18.807 15.897 18.544C17.106 18.075 18.061 17.119 18.53 15.911C18.793 15.211 18.934 14.473 18.949 13.724C18.992 12.762 19.005 12.457 19.005 10.014C19.003 7.572 19.003 7.262 18.947 6.305ZM9.99401 14.602C7.44001 14.602 5.37101 12.533 5.37101 9.979C5.37101 7.425 7.44001 5.356 9.99401 5.356C12.546 5.356 14.617 7.425 14.617 9.979C14.617 12.533 12.546 14.602 9.99401 14.602ZM14.801 6.263C14.204 6.263 13.723 5.781 13.723 5.185C13.723 4.589 14.204 4.107 14.801 4.107C15.396 4.107 15.878 4.589 15.878 5.185C15.878 5.781 15.396 6.263 14.801 6.263Z" fill="#1C1B21"/>
</svg>
