<svg width="44" height="52" viewBox="0 0 44 52" fill="none" xmlns="http://www.w3.org/2000/svg">
<path d="M28.2708 9.75141C29.5976 8.45577 30.5767 7.03667 31.2085 5.49355C31.8192 3.95043 32.1246 2.55188 32.1246 1.2963C32.1246 1.21458 32.1193 1.11055 32.1088 0.987655C32.0977 0.864758 32.093 0.7625 32.093 0.679013C32.072 0.617284 32.0457 0.5041 32.014 0.338899C31.9825 0.174913 31.9562 0.0617284 31.9351 0C28.2287 0.84356 25.5968 2.36613 24.0386 4.56762C22.4592 6.78919 21.6379 9.43306 21.5747 12.4987C22.985 12.3746 24.08 12.2009 24.8599 11.9746C25.997 11.6032 27.1336 10.863 28.2708 9.75141Z" fill="#6149C4"/>
<path d="M39.0097 33.5952C37.5566 31.5601 36.8301 29.2668 36.8301 26.7153C36.8301 24.3916 37.5139 22.2634 38.8832 20.3294C39.6203 19.2811 40.8207 18.0675 42.4843 16.6889C41.3893 15.3731 40.2942 14.3453 39.1992 13.6037C37.2196 12.2684 34.9768 11.5983 32.4713 11.5983C30.9761 11.5983 29.1546 11.9492 27.0065 12.6479C24.9426 13.3478 23.437 13.6963 22.4899 13.6963C21.7739 13.6963 20.3209 13.3878 18.1307 12.7708C15.9195 12.1537 14.0564 11.8452 12.54 11.8452C8.91789 11.8452 5.92755 13.326 3.56949 16.2884C1.18983 19.2913 0 23.1369 0 27.8258C0 32.8028 1.54779 37.975 4.64357 43.3439C7.78083 48.6704 10.9501 51.3334 14.1511 51.3334C15.2251 51.3334 16.6144 50.9837 18.3202 50.285C20.026 49.6062 21.5206 49.267 22.8052 49.267C24.1741 49.267 25.7634 49.596 27.575 50.2536C29.4908 50.9118 30.965 51.2403 31.9969 51.2403C34.6918 51.2403 37.398 49.2251 40.1146 45.1944C41.8836 42.624 43.1787 40.0524 44 37.482C42.1259 36.9273 40.4627 35.6314 39.0097 33.5952Z" fill="#6149C4"/>
</svg>
