<svg width="100" height="80" viewBox="0 0 100 80" fill="none" xmlns="http://www.w3.org/2000/svg">
<path fill-rule="evenodd" clip-rule="evenodd" d="M46.845 20.6452H10.5794C2.44747 20.6452 -2.6349 29.2473 1.431 36.1291L24.3019 74.8388C28.3678 81.7204 38.5325 81.7204 42.5984 74.8388L51.7464 59.3549H77.2885L82.042 51.613H56.3204L70.043 28.3871H95.2464L100 20.6452H65.9058L59.6838 30.4517H59.6749L35.7369 70.9678C34.7207 72.6881 32.1796 72.6881 31.1629 70.9678L8.29237 32.2581C7.27563 30.5377 8.54642 28.3871 10.5794 28.3871H41.9699L46.845 20.6452Z" fill="#EE9746"/>
<path fill-rule="evenodd" clip-rule="evenodd" d="M72.8882 0H64.4373L44.363 33.1613H22.0275H21.6499H17.7583H15.9287C15.1158 33.1613 14.6072 34.0216 15.0139 34.7097L15.9287 36.2581L17.8745 39.5514L18.0635 39.871L29.5667 59.341L29.76 59.6682L31.7132 62.974L32.6206 64.5095C33.0278 65.1996 34.0472 65.1975 34.4523 64.5064L35.3539 62.9678L37.2949 59.6548L37.4867 59.3271L48.8863 39.871L52.8175 33.1613H52.8138L72.8882 0ZM40.9742 39.871L33.5143 52.6034L25.992 39.871H40.9742Z" fill="#6149C4"/>
</svg>
