<svg width="18" height="18" viewBox="0 0 18 18" fill="none" xmlns="http://www.w3.org/2000/svg">
<path d="M17.487 14.14L13.422 10.444C13.023 10.081 12.407 10.1 12.031 10.487L9.638 12.948C9.062 12.838 7.904 12.477 6.712 11.288C5.52 10.095 5.159 8.934 5.052 8.362L7.511 5.968C7.899 5.592 7.917 4.977 7.554 4.577L3.859 0.512999C3.496 0.111999 2.879 0.0739991 2.468 0.425999L0.298 2.287C0.125 2.461 0.0219997 2.691 0.00799967 2.936C-0.00700033 3.186 -0.293 9.108 4.299 13.702C8.305 17.707 13.323 18 14.705 18C14.907 18 15.031 17.994 15.064 17.992C15.309 17.978 15.539 17.875 15.712 17.701L17.572 15.53C17.926 15.119 17.887 14.503 17.487 14.14Z" fill="#1C1B21"/>
</svg>
