<?xml version="1.0" standalone="no"?>
<!DOCTYPE svg PUBLIC "-//W3C//DTD SVG 20010904//EN"
 "http://www.w3.org/TR/2001/REC-SVG-20010904/DTD/svg10.dtd">
<svg version="1.0" xmlns="http://www.w3.org/2000/svg"
 width="800.000000pt" height="800.000000pt" viewBox="0 0 800.000000 800.000000"
 preserveAspectRatio="xMidYMid meet">
<metadata>
Created by potrace 1.11, written by Peter Selinger 2001-2013
</metadata>
<g transform="translate(0.000000,800.000000) scale(0.100000,-0.100000)"
fill="#000000" stroke="none">
<path d="M5103 7118 c-26 -45 -57 -98 -69 -118 -26 -44 -192 -317 -210 -347
-8 -13 -14 -26 -13 -29 0 -4 -3 -10 -8 -13 -12 -8 -153 -241 -153 -252 0 -5
-4 -9 -10 -9 -5 0 -10 -4 -10 -9 0 -6 -27 -53 -60 -106 -33 -53 -60 -99 -60
-101 0 -3 -15 -29 -34 -57 -40 -62 -125 -201 -146 -238 -8 -15 -64 -109 -125
-208 -60 -99 -117 -193 -125 -208 -8 -15 -20 -33 -26 -39 -6 -7 -17 -26 -24
-43 -7 -17 -16 -31 -21 -31 -5 0 -9 -4 -9 -9 0 -5 -50 -92 -111 -193 -62 -101
-121 -199 -133 -218 -11 -19 -23 -37 -26 -40 -3 -3 -11 -16 -18 -30 -7 -14
-21 -38 -32 -55 -11 -16 -25 -41 -32 -55 -7 -14 -15 -27 -18 -30 -7 -7 -38
-59 -57 -97 -15 -29 -22 -33 -57 -34 -23 0 -538 0 -1146 -1 -1193 0 -1160 2
-1174 -51 -11 -43 -5 -58 68 -181 41 -68 82 -136 90 -152 9 -16 25 -42 36 -59
11 -16 23 -37 27 -45 4 -8 59 -103 123 -211 64 -107 120 -202 123 -210 4 -8
17 -30 30 -50 12 -20 84 -142 160 -270 76 -129 143 -241 148 -249 29 -49 155
-261 171 -290 48 -83 163 -278 187 -315 14 -22 26 -42 26 -45 0 -3 8 -17 18
-32 34 -56 44 -73 46 -83 1 -5 8 -17 15 -25 7 -8 46 -71 86 -138 82 -141 108
-162 164 -135 28 13 86 90 86 114 0 5 5 9 12 9 6 0 9 3 6 6 -3 3 9 29 28 57
19 28 34 57 34 64 0 7 4 13 8 13 4 0 18 19 30 43 35 66 67 122 72 127 7 6 128
215 148 255 9 17 18 32 21 35 8 6 29 40 38 60 4 8 39 69 78 135 39 66 74 127
78 135 4 8 13 24 20 35 68 112 147 248 147 256 0 5 4 9 9 9 5 0 11 8 14 18 8
23 40 75 52 84 6 4 7 8 3 8 -4 0 14 35 41 78 26 42 51 84 54 92 4 8 16 29 27
45 10 17 29 49 41 73 13 23 27 42 31 42 5 0 7 4 3 9 -3 5 0 13 5 16 6 4 16 17
21 28 5 12 18 36 28 53 20 32 253 429 281 479 10 17 46 80 82 140 36 61 76
128 89 150 13 22 26 42 29 45 3 3 11 16 19 29 7 13 103 173 214 355 110 182
208 345 217 361 10 17 66 109 124 205 59 96 160 262 224 368 64 106 125 205
134 220 10 15 21 34 25 42 4 8 26 45 49 81 23 36 45 75 48 87 4 12 11 22 15
22 4 0 16 18 27 40 10 22 22 40 27 40 4 0 7 7 7 15 0 8 5 15 12 15 6 0 9 3 5
6 -3 3 19 44 49 90 30 47 54 87 54 91 0 3 11 21 26 40 14 18 21 33 17 33 -4 0
-3 4 2 8 13 9 135 209 135 221 0 5 4 11 8 13 10 4 52 76 52 89 0 5 -132 9
-334 9 l-334 0 -49 -82z m-1876 -3195 c-29 -49 -56 -95 -60 -103 -8 -17 -30
-53 -37 -60 -3 -3 -13 -21 -24 -40 -40 -75 -69 -126 -79 -139 -12 -15 -32 -48
-43 -71 -4 -8 -31 -53 -59 -100 -28 -47 -54 -92 -58 -100 -4 -8 -18 -33 -32
-55 -24 -39 -35 -59 -109 -190 -31 -55 -54 -75 -57 -50 -1 6 -9 21 -19 35 -21
29 -132 215 -168 280 -13 25 -31 52 -38 61 -8 8 -14 19 -14 24 0 4 -17 35 -38
69 -21 34 -41 68 -45 76 -4 8 -38 66 -77 129 -38 63 -70 116 -70 117 0 2 -25
45 -56 96 -31 51 -58 96 -61 101 -2 4 266 7 596 7 l601 0 -53 -87z"/>
<path d="M690 5535 c-275 -55 -486 -216 -610 -467 -21 -43 -37 -78 -35 -78 2
0 -2 -18 -10 -39 -22 -63 -27 -99 -30 -214 -5 -179 34 -307 150 -495 6 -9 21
-35 33 -57 12 -22 31 -55 42 -72 25 -41 39 -65 116 -195 80 -135 313 -529 325
-548 89 -150 159 -272 159 -279 0 -5 4 -11 8 -13 4 -1 41 -59 81 -128 81 -139
122 -209 188 -320 25 -41 54 -91 65 -110 11 -19 71 -120 133 -225 62 -104 145
-246 186 -315 41 -69 79 -132 84 -141 6 -9 22 -38 38 -65 15 -27 32 -56 37
-64 26 -40 180 -303 180 -308 0 -3 6 -13 14 -21 13 -16 59 -94 80 -138 6 -13
14 -23 19 -23 4 0 7 -4 7 -9 0 -20 63 -103 127 -166 112 -111 268 -195 428
-228 83 -17 285 -16 360 3 221 54 430 202 532 375 6 11 45 77 87 147 42 70 76
132 76 137 0 5 4 11 8 13 6 2 140 224 204 338 11 19 32 55 47 80 96 155 231
390 231 399 0 6 4 11 8 11 5 0 17 18 28 40 10 22 22 40 25 40 4 0 10 11 13 25
6 24 10 25 74 25 37 1 499 2 1027 3 l959 2 48 75 c26 41 51 82 55 90 4 8 23
40 42 70 54 84 60 94 67 113 3 9 10 17 14 17 4 0 10 8 13 18 6 18 38 74 48 82
3 3 9 12 12 20 4 8 23 40 41 70 19 30 33 56 32 58 -2 1 -463 2 -1025 2 -561 0
-1021 3 -1021 6 0 3 8 18 19 32 10 15 22 37 25 50 4 12 12 22 17 22 5 0 9 4 9
9 0 8 63 118 141 246 10 17 30 50 44 75 14 25 36 63 50 85 14 22 35 59 47 83
12 23 26 42 30 42 4 0 8 4 8 9 0 6 91 164 202 351 112 188 212 358 224 378 45
81 64 112 88 151 15 22 26 43 26 46 0 3 8 18 19 33 36 54 55 87 53 95 -1 4 2
7 7 7 5 0 14 14 21 30 7 17 17 30 22 30 5 0 7 4 4 9 -3 5 1 14 9 21 8 7 15 19
15 26 0 8 1 15 3 16 1 2 458 5 1016 8 1001 5 1014 5 1025 25 6 11 13 22 16 25
8 8 70 111 70 116 0 3 5 10 10 17 19 22 260 419 260 428 0 5 -549 9 -1358 9
l-1358 0 -27 -41 c-15 -22 -27 -45 -27 -50 0 -5 -4 -9 -10 -9 -5 0 -10 -7 -10
-15 0 -8 -4 -15 -10 -15 -5 0 -10 -4 -10 -10 0 -8 -22 -43 -110 -180 -92 -141
-230 -364 -230 -370 0 -5 -3 -10 -8 -12 -8 -3 -122 -184 -122 -194 0 -3 -15
-29 -34 -57 -49 -76 -144 -241 -144 -251 0 -5 -5 -12 -10 -15 -5 -3 -20 -25
-33 -48 -13 -22 -42 -72 -64 -110 -22 -37 -42 -72 -44 -78 -2 -5 -9 -17 -16
-25 -7 -8 -22 -32 -34 -52 -12 -21 -29 -53 -40 -70 -106 -183 -137 -234 -146
-240 -5 -4 -6 -8 -1 -8 5 0 2 -8 -6 -17 -13 -15 -108 -173 -143 -238 -6 -11
-39 -66 -73 -122 -34 -56 -62 -107 -62 -113 0 -5 -4 -10 -8 -10 -5 0 -14 -12
-21 -27 -11 -24 -106 -186 -288 -491 -23 -40 -43 -77 -43 -82 0 -6 -4 -10 -10
-10 -5 0 -10 -4 -10 -9 0 -5 -28 -55 -63 -112 -35 -58 -66 -111 -70 -119 -4
-8 -17 -31 -29 -52 -13 -20 -49 -81 -81 -135 -32 -54 -62 -105 -67 -113 -5 -8
-60 -100 -121 -205 -61 -104 -122 -207 -135 -227 -13 -21 -24 -40 -24 -43 0
-19 -67 -100 -102 -122 -34 -23 -51 -27 -112 -28 -73 0 -104 12 -151 59 -28
28 -105 155 -105 172 0 8 -4 14 -8 14 -5 0 -15 12 -23 28 -7 15 -21 38 -30 52
-9 14 -61 101 -115 193 -55 92 -109 184 -121 205 -12 20 -25 44 -30 52 -4 8
-42 73 -85 143 -43 71 -78 131 -78 133 0 3 -15 28 -33 57 -18 29 -41 69 -52
90 -11 20 -23 37 -27 37 -5 0 -8 5 -8 10 0 6 -34 67 -75 136 -41 69 -75 129
-75 133 0 4 -7 16 -15 26 -30 40 -64 95 -58 95 3 0 -1 8 -9 18 -15 17 -61 94
-140 233 -7 13 -15 26 -18 29 -5 5 -10 13 -52 89 -11 20 -29 48 -39 63 -11 14
-19 31 -19 37 0 6 -4 11 -10 11 -5 0 -10 4 -10 10 0 5 -28 56 -61 112 -34 57
-73 123 -87 148 -13 25 -31 52 -38 61 -8 8 -14 18 -14 22 0 6 -133 235 -147
252 -4 6 -15 24 -23 40 -8 17 -17 32 -20 35 -10 10 -31 46 -43 73 -6 15 -15
27 -19 27 -4 0 -8 5 -8 10 0 6 -27 55 -60 110 -67 111 -97 162 -118 203 -15
29 -19 95 -9 136 12 46 59 100 110 126 l50 25 1276 0 c1204 0 1277 1 1288 18
7 9 16 22 20 27 5 6 28 44 53 85 25 41 48 80 52 85 14 18 53 78 83 130 16 27
32 54 37 60 17 19 128 200 128 208 0 4 -672 7 -1492 6 -1174 -1 -1507 -4
-1558 -14z"/>
</g>
</svg>
