<svg width="100" height="80" fill="none" xmlns="http://www.w3.org/2000/svg"><path fill-rule="evenodd" clip-rule="evenodd" d="M46.845 20.645H10.579c-8.132 0-13.214 8.602-9.148 15.484l22.87 38.71c4.067 6.881 14.232 6.881 18.297 0l9.148-15.484h25.542l4.754-7.742H56.32l13.723-23.226h25.203L100 20.645H65.906l-6.222 9.807h-.01L35.738 70.968c-1.016 1.72-3.557 1.72-4.574 0l-22.87-38.71c-1.017-1.72.253-3.87 2.286-3.87h31.39l4.876-7.743z" fill="#EE9746"/><path fill-rule="evenodd" clip-rule="evenodd" d="M72.888 0h-8.45L44.362 33.161H15.928c-.812 0-1.32.86-.914 1.549l.915 1.548 1.946 3.293.189.32 11.503 19.47.193.327 1.953 3.306.908 1.536c.407.69 1.426.688 1.831-.004l.902-1.538 1.94-3.313.193-.328 11.4-19.456 3.93-6.71h-.003L72.888 0zM40.974 39.871l-7.46 12.732-7.522-12.732h14.982z" fill="#6149C4"/></svg>